<svg xmlns="http://www.w3.org/2000/svg" width="47.666" height="52" viewBox="0 0 47.666 52">
  <g id="quill_1_" data-name="quill (1)" transform="translate(-21.334)">
    <g id="Group_1" data-name="Group 1" transform="translate(21.334)">
      <path id="Path_3" data-name="Path 3" d="M67.917,0A42.292,42.292,0,0,0,25.858,38.476,132.448,132.448,0,0,1,39.6,22.639a1.083,1.083,0,0,1,1.547,1.517c-.843.858-1.7,1.749-2.559,2.65-.492.514-.973,1.025-1.445,1.528-.087.093-.173.186-.26.282-6.916,7.406-11.86,13.851-15.451,21.857a1.084,1.084,0,0,0,1.978.888A59.463,59.463,0,0,1,27.838,43.3,42.218,42.218,0,0,0,63.963,21.1a1.083,1.083,0,0,0-.956-1.6H58.995l7.2-4.112a1.085,1.085,0,0,0,.487-.587A42.1,42.1,0,0,0,69,1.083,1.084,1.084,0,0,0,67.917,0Z" transform="translate(-21.334)" fill="#1A1844"/>
    </g>
  </g>
</svg>
